<mxfile host="Electron" modified="2023-08-28T18:01:12.249Z" agent="Mozilla/5.0 (Macintosh; Intel Mac OS X 10_15_7) AppleWebKit/537.36 (KHTML, like Gecko) draw.io/21.6.8 Chrome/114.0.5735.289 Electron/25.5.0 Safari/537.36" etag="u5Tp9Vu_2IU13cpSdB86" version="21.6.8" type="device">
  <diagram name="Page-1" id="ixQN9vI59o-Z_zkpXHbS">
    <mxGraphModel dx="1026" dy="1843" grid="1" gridSize="10" guides="1" tooltips="1" connect="1" arrows="1" fold="1" page="1" pageScale="1" pageWidth="850" pageHeight="1100" math="0" shadow="0">
      <root>
        <mxCell id="0" />
        <mxCell id="1" parent="0" />
        <mxCell id="JAHpM6WGsFmIWSkiwUEK-5" value="us-east-1" style="points=[[0,0],[0.25,0],[0.5,0],[0.75,0],[1,0],[1,0.25],[1,0.5],[1,0.75],[1,1],[0.75,1],[0.5,1],[0.25,1],[0,1],[0,0.75],[0,0.5],[0,0.25]];outlineConnect=0;gradientColor=none;html=1;whiteSpace=wrap;fontSize=12;fontStyle=0;container=1;pointerEvents=0;collapsible=0;recursiveResize=0;shape=mxgraph.aws4.group;grIcon=mxgraph.aws4.group_region;strokeColor=#147EBA;fillColor=none;verticalAlign=top;align=left;spacingLeft=30;fontColor=#147EBA;dashed=1;" parent="1" vertex="1">
          <mxGeometry x="40" y="-80" width="220" height="160" as="geometry" />
        </mxCell>
        <mxCell id="JAHpM6WGsFmIWSkiwUEK-19" value="Guardduty" style="sketch=0;points=[[0,0,0],[0.25,0,0],[0.5,0,0],[0.75,0,0],[1,0,0],[0,1,0],[0.25,1,0],[0.5,1,0],[0.75,1,0],[1,1,0],[0,0.25,0],[0,0.5,0],[0,0.75,0],[1,0.25,0],[1,0.5,0],[1,0.75,0]];outlineConnect=0;fontColor=#232F3E;gradientColor=#F54749;gradientDirection=north;fillColor=#C7131F;strokeColor=#ffffff;dashed=0;verticalLabelPosition=bottom;verticalAlign=top;align=center;html=1;fontSize=12;fontStyle=0;aspect=fixed;shape=mxgraph.aws4.resourceIcon;resIcon=mxgraph.aws4.guardduty;" parent="JAHpM6WGsFmIWSkiwUEK-5" vertex="1">
          <mxGeometry x="86" y="78" width="40" height="40" as="geometry" />
        </mxCell>
        <mxCell id="JAHpM6WGsFmIWSkiwUEK-20" value="" style="edgeStyle=orthogonalEdgeStyle;rounded=0;orthogonalLoop=1;jettySize=auto;html=1;endArrow=none;endFill=0;dashed=1;exitX=0.5;exitY=0;exitDx=0;exitDy=0;exitPerimeter=0;" parent="JAHpM6WGsFmIWSkiwUEK-5" source="JAHpM6WGsFmIWSkiwUEK-21" edge="1">
          <mxGeometry relative="1" as="geometry">
            <mxPoint x="106" y="60" as="targetPoint" />
            <Array as="points">
              <mxPoint x="172" y="58" />
              <mxPoint x="106" y="58" />
            </Array>
          </mxGeometry>
        </mxCell>
        <mxCell id="JAHpM6WGsFmIWSkiwUEK-21" value="Inspector 2" style="sketch=0;points=[[0,0,0],[0.25,0,0],[0.5,0,0],[0.75,0,0],[1,0,0],[0,1,0],[0.25,1,0],[0.5,1,0],[0.75,1,0],[1,1,0],[0,0.25,0],[0,0.5,0],[0,0.75,0],[1,0.25,0],[1,0.5,0],[1,0.75,0]];outlineConnect=0;fontColor=#232F3E;gradientColor=#F54749;gradientDirection=north;fillColor=#C7131F;strokeColor=#ffffff;dashed=0;verticalLabelPosition=bottom;verticalAlign=top;align=center;html=1;fontSize=12;fontStyle=0;aspect=fixed;shape=mxgraph.aws4.resourceIcon;resIcon=mxgraph.aws4.inspector;" parent="JAHpM6WGsFmIWSkiwUEK-5" vertex="1">
          <mxGeometry x="152" y="78" width="40" height="40" as="geometry" />
        </mxCell>
        <mxCell id="JAHpM6WGsFmIWSkiwUEK-22" value="Security Hub&lt;br&gt;" style="sketch=0;points=[[0,0,0],[0.25,0,0],[0.5,0,0],[0.75,0,0],[1,0,0],[0,1,0],[0.25,1,0],[0.5,1,0],[0.75,1,0],[1,1,0],[0,0.25,0],[0,0.5,0],[0,0.75,0],[1,0.25,0],[1,0.5,0],[1,0.75,0]];outlineConnect=0;fontColor=#232F3E;gradientColor=#F54749;gradientDirection=north;fillColor=#C7131F;strokeColor=#ffffff;dashed=0;verticalLabelPosition=bottom;verticalAlign=top;align=center;html=1;fontSize=12;fontStyle=0;aspect=fixed;shape=mxgraph.aws4.resourceIcon;resIcon=mxgraph.aws4.security_hub;" parent="JAHpM6WGsFmIWSkiwUEK-5" vertex="1">
          <mxGeometry x="20" y="40" width="38" height="38" as="geometry" />
        </mxCell>
        <mxCell id="JAHpM6WGsFmIWSkiwUEK-18" value="" style="edgeStyle=orthogonalEdgeStyle;rounded=0;orthogonalLoop=1;jettySize=auto;html=1;entryX=1;entryY=0.5;entryDx=0;entryDy=0;entryPerimeter=0;exitX=0.5;exitY=0;exitDx=0;exitDy=0;exitPerimeter=0;dashed=1;" parent="JAHpM6WGsFmIWSkiwUEK-5" source="JAHpM6WGsFmIWSkiwUEK-19" target="JAHpM6WGsFmIWSkiwUEK-22" edge="1">
          <mxGeometry relative="1" as="geometry">
            <mxPoint x="106" y="8" as="targetPoint" />
          </mxGeometry>
        </mxCell>
        <mxCell id="JAHpM6WGsFmIWSkiwUEK-7" value="Delegated Admin Account" style="points=[[0,0],[0.25,0],[0.5,0],[0.75,0],[1,0],[1,0.25],[1,0.5],[1,0.75],[1,1],[0.75,1],[0.5,1],[0.25,1],[0,1],[0,0.75],[0,0.5],[0,0.25]];outlineConnect=0;gradientColor=none;html=1;whiteSpace=wrap;fontSize=12;fontStyle=0;container=1;pointerEvents=0;collapsible=0;recursiveResize=0;shape=mxgraph.aws4.group;grIcon=mxgraph.aws4.group_account;strokeColor=#CD2264;fillColor=none;verticalAlign=top;align=left;spacingLeft=30;fontColor=#CD2264;dashed=0;" parent="1" vertex="1">
          <mxGeometry x="10" y="-110" width="540" height="220" as="geometry" />
        </mxCell>
        <mxCell id="JAHpM6WGsFmIWSkiwUEK-23" value="SH Aggregate Region" style="text;html=1;align=center;verticalAlign=middle;resizable=0;points=[];autosize=1;strokeColor=none;fillColor=none;" parent="JAHpM6WGsFmIWSkiwUEK-7" vertex="1">
          <mxGeometry x="116" y="30" width="140" height="30" as="geometry" />
        </mxCell>
        <mxCell id="JAHpM6WGsFmIWSkiwUEK-8" value="us-east-2" style="points=[[0,0],[0.25,0],[0.5,0],[0.75,0],[1,0],[1,0.25],[1,0.5],[1,0.75],[1,1],[0.75,1],[0.5,1],[0.25,1],[0,1],[0,0.75],[0,0.5],[0,0.25]];outlineConnect=0;gradientColor=none;html=1;whiteSpace=wrap;fontSize=12;fontStyle=0;container=1;pointerEvents=0;collapsible=0;recursiveResize=0;shape=mxgraph.aws4.group;grIcon=mxgraph.aws4.group_region;strokeColor=#147EBA;fillColor=none;verticalAlign=top;align=left;spacingLeft=30;fontColor=#147EBA;dashed=1;" parent="1" vertex="1">
          <mxGeometry x="300" y="-80" width="220" height="160" as="geometry" />
        </mxCell>
        <mxCell id="JAHpM6WGsFmIWSkiwUEK-3" value="Guardduty" style="sketch=0;points=[[0,0,0],[0.25,0,0],[0.5,0,0],[0.75,0,0],[1,0,0],[0,1,0],[0.25,1,0],[0.5,1,0],[0.75,1,0],[1,1,0],[0,0.25,0],[0,0.5,0],[0,0.75,0],[1,0.25,0],[1,0.5,0],[1,0.75,0]];outlineConnect=0;fontColor=#232F3E;gradientColor=#F54749;gradientDirection=north;fillColor=#C7131F;strokeColor=#ffffff;dashed=0;verticalLabelPosition=bottom;verticalAlign=top;align=center;html=1;fontSize=12;fontStyle=0;aspect=fixed;shape=mxgraph.aws4.resourceIcon;resIcon=mxgraph.aws4.guardduty;" parent="JAHpM6WGsFmIWSkiwUEK-8" vertex="1">
          <mxGeometry x="86" y="79" width="40" height="40" as="geometry" />
        </mxCell>
        <mxCell id="JAHpM6WGsFmIWSkiwUEK-17" value="" style="edgeStyle=orthogonalEdgeStyle;rounded=0;orthogonalLoop=1;jettySize=auto;html=1;endArrow=none;endFill=0;dashed=1;exitX=0.5;exitY=0;exitDx=0;exitDy=0;exitPerimeter=0;" parent="JAHpM6WGsFmIWSkiwUEK-8" source="JAHpM6WGsFmIWSkiwUEK-4" edge="1">
          <mxGeometry relative="1" as="geometry">
            <mxPoint x="106" y="61" as="targetPoint" />
            <Array as="points">
              <mxPoint x="172" y="59" />
              <mxPoint x="106" y="59" />
            </Array>
          </mxGeometry>
        </mxCell>
        <mxCell id="JAHpM6WGsFmIWSkiwUEK-4" value="Inspector 2" style="sketch=0;points=[[0,0,0],[0.25,0,0],[0.5,0,0],[0.75,0,0],[1,0,0],[0,1,0],[0.25,1,0],[0.5,1,0],[0.75,1,0],[1,1,0],[0,0.25,0],[0,0.5,0],[0,0.75,0],[1,0.25,0],[1,0.5,0],[1,0.75,0]];outlineConnect=0;fontColor=#232F3E;gradientColor=#F54749;gradientDirection=north;fillColor=#C7131F;strokeColor=#ffffff;dashed=0;verticalLabelPosition=bottom;verticalAlign=top;align=center;html=1;fontSize=12;fontStyle=0;aspect=fixed;shape=mxgraph.aws4.resourceIcon;resIcon=mxgraph.aws4.inspector;" parent="JAHpM6WGsFmIWSkiwUEK-8" vertex="1">
          <mxGeometry x="152" y="79" width="40" height="40" as="geometry" />
        </mxCell>
        <mxCell id="JAHpM6WGsFmIWSkiwUEK-2" value="Security Hub&lt;br&gt;" style="sketch=0;points=[[0,0,0],[0.25,0,0],[0.5,0,0],[0.75,0,0],[1,0,0],[0,1,0],[0.25,1,0],[0.5,1,0],[0.75,1,0],[1,1,0],[0,0.25,0],[0,0.5,0],[0,0.75,0],[1,0.25,0],[1,0.5,0],[1,0.75,0]];outlineConnect=0;fontColor=#232F3E;gradientColor=#F54749;gradientDirection=north;fillColor=#C7131F;strokeColor=#ffffff;dashed=0;verticalLabelPosition=bottom;verticalAlign=top;align=center;html=1;fontSize=12;fontStyle=0;aspect=fixed;shape=mxgraph.aws4.resourceIcon;resIcon=mxgraph.aws4.security_hub;" parent="JAHpM6WGsFmIWSkiwUEK-8" vertex="1">
          <mxGeometry x="20" y="41" width="38" height="38" as="geometry" />
        </mxCell>
        <mxCell id="JAHpM6WGsFmIWSkiwUEK-15" value="" style="edgeStyle=orthogonalEdgeStyle;rounded=0;orthogonalLoop=1;jettySize=auto;html=1;entryX=1;entryY=0.5;entryDx=0;entryDy=0;entryPerimeter=0;exitX=0.5;exitY=0;exitDx=0;exitDy=0;exitPerimeter=0;dashed=1;" parent="JAHpM6WGsFmIWSkiwUEK-8" source="JAHpM6WGsFmIWSkiwUEK-3" target="JAHpM6WGsFmIWSkiwUEK-2" edge="1">
          <mxGeometry relative="1" as="geometry">
            <mxPoint x="106" y="9" as="targetPoint" />
          </mxGeometry>
        </mxCell>
        <mxCell id="JAHpM6WGsFmIWSkiwUEK-24" value="" style="edgeStyle=orthogonalEdgeStyle;rounded=0;orthogonalLoop=1;jettySize=auto;html=1;entryX=1;entryY=0.25;entryDx=0;entryDy=0;entryPerimeter=0;exitX=0;exitY=0.25;exitDx=0;exitDy=0;exitPerimeter=0;dashed=1;" parent="1" source="JAHpM6WGsFmIWSkiwUEK-2" target="JAHpM6WGsFmIWSkiwUEK-22" edge="1">
          <mxGeometry relative="1" as="geometry" />
        </mxCell>
        <mxCell id="JAHpM6WGsFmIWSkiwUEK-25" value="us-east-1" style="points=[[0,0],[0.25,0],[0.5,0],[0.75,0],[1,0],[1,0.25],[1,0.5],[1,0.75],[1,1],[0.75,1],[0.5,1],[0.25,1],[0,1],[0,0.75],[0,0.5],[0,0.25]];outlineConnect=0;gradientColor=none;html=1;whiteSpace=wrap;fontSize=12;fontStyle=0;container=1;pointerEvents=0;collapsible=0;recursiveResize=0;shape=mxgraph.aws4.group;grIcon=mxgraph.aws4.group_region;strokeColor=#147EBA;fillColor=none;verticalAlign=top;align=left;spacingLeft=30;fontColor=#147EBA;dashed=1;" parent="1" vertex="1">
          <mxGeometry x="40" y="160" width="220" height="160" as="geometry" />
        </mxCell>
        <mxCell id="JAHpM6WGsFmIWSkiwUEK-26" value="Guardduty" style="sketch=0;points=[[0,0,0],[0.25,0,0],[0.5,0,0],[0.75,0,0],[1,0,0],[0,1,0],[0.25,1,0],[0.5,1,0],[0.75,1,0],[1,1,0],[0,0.25,0],[0,0.5,0],[0,0.75,0],[1,0.25,0],[1,0.5,0],[1,0.75,0]];outlineConnect=0;fontColor=#232F3E;gradientColor=#F54749;gradientDirection=north;fillColor=#C7131F;strokeColor=#ffffff;dashed=0;verticalLabelPosition=bottom;verticalAlign=top;align=center;html=1;fontSize=12;fontStyle=0;aspect=fixed;shape=mxgraph.aws4.resourceIcon;resIcon=mxgraph.aws4.guardduty;" parent="JAHpM6WGsFmIWSkiwUEK-25" vertex="1">
          <mxGeometry x="86" y="78" width="40" height="40" as="geometry" />
        </mxCell>
        <mxCell id="JAHpM6WGsFmIWSkiwUEK-27" value="" style="edgeStyle=orthogonalEdgeStyle;rounded=0;orthogonalLoop=1;jettySize=auto;html=1;endArrow=none;endFill=0;dashed=1;exitX=0.5;exitY=0;exitDx=0;exitDy=0;exitPerimeter=0;" parent="JAHpM6WGsFmIWSkiwUEK-25" source="JAHpM6WGsFmIWSkiwUEK-28" edge="1">
          <mxGeometry relative="1" as="geometry">
            <mxPoint x="106" y="60" as="targetPoint" />
            <Array as="points">
              <mxPoint x="172" y="58" />
              <mxPoint x="106" y="58" />
            </Array>
          </mxGeometry>
        </mxCell>
        <mxCell id="JAHpM6WGsFmIWSkiwUEK-28" value="Inspector 2" style="sketch=0;points=[[0,0,0],[0.25,0,0],[0.5,0,0],[0.75,0,0],[1,0,0],[0,1,0],[0.25,1,0],[0.5,1,0],[0.75,1,0],[1,1,0],[0,0.25,0],[0,0.5,0],[0,0.75,0],[1,0.25,0],[1,0.5,0],[1,0.75,0]];outlineConnect=0;fontColor=#232F3E;gradientColor=#F54749;gradientDirection=north;fillColor=#C7131F;strokeColor=#ffffff;dashed=0;verticalLabelPosition=bottom;verticalAlign=top;align=center;html=1;fontSize=12;fontStyle=0;aspect=fixed;shape=mxgraph.aws4.resourceIcon;resIcon=mxgraph.aws4.inspector;" parent="JAHpM6WGsFmIWSkiwUEK-25" vertex="1">
          <mxGeometry x="152" y="78" width="40" height="40" as="geometry" />
        </mxCell>
        <mxCell id="JAHpM6WGsFmIWSkiwUEK-29" value="Security Hub&lt;br&gt;" style="sketch=0;points=[[0,0,0],[0.25,0,0],[0.5,0,0],[0.75,0,0],[1,0,0],[0,1,0],[0.25,1,0],[0.5,1,0],[0.75,1,0],[1,1,0],[0,0.25,0],[0,0.5,0],[0,0.75,0],[1,0.25,0],[1,0.5,0],[1,0.75,0]];outlineConnect=0;fontColor=#232F3E;gradientColor=#F54749;gradientDirection=north;fillColor=#C7131F;strokeColor=#ffffff;dashed=0;verticalLabelPosition=bottom;verticalAlign=top;align=center;html=1;fontSize=12;fontStyle=0;aspect=fixed;shape=mxgraph.aws4.resourceIcon;resIcon=mxgraph.aws4.security_hub;" parent="JAHpM6WGsFmIWSkiwUEK-25" vertex="1">
          <mxGeometry x="20" y="40" width="38" height="38" as="geometry" />
        </mxCell>
        <mxCell id="JAHpM6WGsFmIWSkiwUEK-30" value="" style="edgeStyle=orthogonalEdgeStyle;rounded=0;orthogonalLoop=1;jettySize=auto;html=1;entryX=1;entryY=0.5;entryDx=0;entryDy=0;entryPerimeter=0;exitX=0.5;exitY=0;exitDx=0;exitDy=0;exitPerimeter=0;dashed=1;" parent="JAHpM6WGsFmIWSkiwUEK-25" source="JAHpM6WGsFmIWSkiwUEK-26" target="JAHpM6WGsFmIWSkiwUEK-29" edge="1">
          <mxGeometry relative="1" as="geometry">
            <mxPoint x="106" y="8" as="targetPoint" />
          </mxGeometry>
        </mxCell>
        <mxCell id="JAHpM6WGsFmIWSkiwUEK-31" value="Member Account" style="points=[[0,0],[0.25,0],[0.5,0],[0.75,0],[1,0],[1,0.25],[1,0.5],[1,0.75],[1,1],[0.75,1],[0.5,1],[0.25,1],[0,1],[0,0.75],[0,0.5],[0,0.25]];outlineConnect=0;gradientColor=none;html=1;whiteSpace=wrap;fontSize=12;fontStyle=0;container=1;pointerEvents=0;collapsible=0;recursiveResize=0;shape=mxgraph.aws4.group;grIcon=mxgraph.aws4.group_account;strokeColor=#007FFF;fillColor=none;verticalAlign=top;align=left;spacingLeft=30;fontColor=#CD2264;dashed=0;" parent="1" vertex="1">
          <mxGeometry x="10" y="130" width="540" height="220" as="geometry" />
        </mxCell>
        <mxCell id="JAHpM6WGsFmIWSkiwUEK-32" value="SH Aggregate Region" style="text;html=1;align=center;verticalAlign=middle;resizable=0;points=[];autosize=1;strokeColor=none;fillColor=none;" parent="JAHpM6WGsFmIWSkiwUEK-31" vertex="1">
          <mxGeometry x="116" y="30" width="140" height="30" as="geometry" />
        </mxCell>
        <mxCell id="JAHpM6WGsFmIWSkiwUEK-33" value="us-east-2" style="points=[[0,0],[0.25,0],[0.5,0],[0.75,0],[1,0],[1,0.25],[1,0.5],[1,0.75],[1,1],[0.75,1],[0.5,1],[0.25,1],[0,1],[0,0.75],[0,0.5],[0,0.25]];outlineConnect=0;gradientColor=none;html=1;whiteSpace=wrap;fontSize=12;fontStyle=0;container=1;pointerEvents=0;collapsible=0;recursiveResize=0;shape=mxgraph.aws4.group;grIcon=mxgraph.aws4.group_region;strokeColor=#147EBA;fillColor=none;verticalAlign=top;align=left;spacingLeft=30;fontColor=#147EBA;dashed=1;" parent="1" vertex="1">
          <mxGeometry x="300" y="160" width="220" height="160" as="geometry" />
        </mxCell>
        <mxCell id="JAHpM6WGsFmIWSkiwUEK-34" value="Guardduty" style="sketch=0;points=[[0,0,0],[0.25,0,0],[0.5,0,0],[0.75,0,0],[1,0,0],[0,1,0],[0.25,1,0],[0.5,1,0],[0.75,1,0],[1,1,0],[0,0.25,0],[0,0.5,0],[0,0.75,0],[1,0.25,0],[1,0.5,0],[1,0.75,0]];outlineConnect=0;fontColor=#232F3E;gradientColor=#F54749;gradientDirection=north;fillColor=#C7131F;strokeColor=#ffffff;dashed=0;verticalLabelPosition=bottom;verticalAlign=top;align=center;html=1;fontSize=12;fontStyle=0;aspect=fixed;shape=mxgraph.aws4.resourceIcon;resIcon=mxgraph.aws4.guardduty;" parent="JAHpM6WGsFmIWSkiwUEK-33" vertex="1">
          <mxGeometry x="86" y="79" width="40" height="40" as="geometry" />
        </mxCell>
        <mxCell id="JAHpM6WGsFmIWSkiwUEK-35" value="" style="edgeStyle=orthogonalEdgeStyle;rounded=0;orthogonalLoop=1;jettySize=auto;html=1;endArrow=none;endFill=0;dashed=1;exitX=0.5;exitY=0;exitDx=0;exitDy=0;exitPerimeter=0;" parent="JAHpM6WGsFmIWSkiwUEK-33" source="JAHpM6WGsFmIWSkiwUEK-36" edge="1">
          <mxGeometry relative="1" as="geometry">
            <mxPoint x="106" y="61" as="targetPoint" />
            <Array as="points">
              <mxPoint x="172" y="59" />
              <mxPoint x="106" y="59" />
            </Array>
          </mxGeometry>
        </mxCell>
        <mxCell id="JAHpM6WGsFmIWSkiwUEK-36" value="Inspector 2" style="sketch=0;points=[[0,0,0],[0.25,0,0],[0.5,0,0],[0.75,0,0],[1,0,0],[0,1,0],[0.25,1,0],[0.5,1,0],[0.75,1,0],[1,1,0],[0,0.25,0],[0,0.5,0],[0,0.75,0],[1,0.25,0],[1,0.5,0],[1,0.75,0]];outlineConnect=0;fontColor=#232F3E;gradientColor=#F54749;gradientDirection=north;fillColor=#C7131F;strokeColor=#ffffff;dashed=0;verticalLabelPosition=bottom;verticalAlign=top;align=center;html=1;fontSize=12;fontStyle=0;aspect=fixed;shape=mxgraph.aws4.resourceIcon;resIcon=mxgraph.aws4.inspector;" parent="JAHpM6WGsFmIWSkiwUEK-33" vertex="1">
          <mxGeometry x="152" y="79" width="40" height="40" as="geometry" />
        </mxCell>
        <mxCell id="JAHpM6WGsFmIWSkiwUEK-37" value="Security Hub&lt;br&gt;" style="sketch=0;points=[[0,0,0],[0.25,0,0],[0.5,0,0],[0.75,0,0],[1,0,0],[0,1,0],[0.25,1,0],[0.5,1,0],[0.75,1,0],[1,1,0],[0,0.25,0],[0,0.5,0],[0,0.75,0],[1,0.25,0],[1,0.5,0],[1,0.75,0]];outlineConnect=0;fontColor=#232F3E;gradientColor=#F54749;gradientDirection=north;fillColor=#C7131F;strokeColor=#ffffff;dashed=0;verticalLabelPosition=bottom;verticalAlign=top;align=center;html=1;fontSize=12;fontStyle=0;aspect=fixed;shape=mxgraph.aws4.resourceIcon;resIcon=mxgraph.aws4.security_hub;" parent="JAHpM6WGsFmIWSkiwUEK-33" vertex="1">
          <mxGeometry x="20" y="41" width="38" height="38" as="geometry" />
        </mxCell>
        <mxCell id="JAHpM6WGsFmIWSkiwUEK-38" value="" style="edgeStyle=orthogonalEdgeStyle;rounded=0;orthogonalLoop=1;jettySize=auto;html=1;entryX=1;entryY=0.5;entryDx=0;entryDy=0;entryPerimeter=0;exitX=0.5;exitY=0;exitDx=0;exitDy=0;exitPerimeter=0;dashed=1;" parent="JAHpM6WGsFmIWSkiwUEK-33" source="JAHpM6WGsFmIWSkiwUEK-34" target="JAHpM6WGsFmIWSkiwUEK-37" edge="1">
          <mxGeometry relative="1" as="geometry">
            <mxPoint x="106" y="9" as="targetPoint" />
          </mxGeometry>
        </mxCell>
        <mxCell id="JAHpM6WGsFmIWSkiwUEK-39" value="" style="edgeStyle=orthogonalEdgeStyle;rounded=0;orthogonalLoop=1;jettySize=auto;html=1;entryX=1;entryY=0.25;entryDx=0;entryDy=0;entryPerimeter=0;exitX=0;exitY=0.25;exitDx=0;exitDy=0;exitPerimeter=0;dashed=1;" parent="1" source="JAHpM6WGsFmIWSkiwUEK-37" target="JAHpM6WGsFmIWSkiwUEK-29" edge="1">
          <mxGeometry relative="1" as="geometry" />
        </mxCell>
        <mxCell id="JAHpM6WGsFmIWSkiwUEK-40" value="us-east-1" style="points=[[0,0],[0.25,0],[0.5,0],[0.75,0],[1,0],[1,0.25],[1,0.5],[1,0.75],[1,1],[0.75,1],[0.5,1],[0.25,1],[0,1],[0,0.75],[0,0.5],[0,0.25]];outlineConnect=0;gradientColor=none;html=1;whiteSpace=wrap;fontSize=12;fontStyle=0;container=1;pointerEvents=0;collapsible=0;recursiveResize=0;shape=mxgraph.aws4.group;grIcon=mxgraph.aws4.group_region;strokeColor=#147EBA;fillColor=none;verticalAlign=top;align=left;spacingLeft=30;fontColor=#147EBA;dashed=1;" parent="1" vertex="1">
          <mxGeometry x="40" y="-320" width="220" height="380" as="geometry" />
        </mxCell>
        <mxCell id="JAHpM6WGsFmIWSkiwUEK-41" value="Guardduty" style="sketch=0;points=[[0,0,0],[0.25,0,0],[0.5,0,0],[0.75,0,0],[1,0,0],[0,1,0],[0.25,1,0],[0.5,1,0],[0.75,1,0],[1,1,0],[0,0.25,0],[0,0.5,0],[0,0.75,0],[1,0.25,0],[1,0.5,0],[1,0.75,0]];outlineConnect=0;fontColor=#232F3E;gradientColor=#F54749;gradientDirection=north;fillColor=#C7131F;strokeColor=#ffffff;dashed=0;verticalLabelPosition=bottom;verticalAlign=top;align=center;html=1;fontSize=12;fontStyle=0;aspect=fixed;shape=mxgraph.aws4.resourceIcon;resIcon=mxgraph.aws4.guardduty;" parent="JAHpM6WGsFmIWSkiwUEK-40" vertex="1">
          <mxGeometry x="86" y="78" width="40" height="40" as="geometry" />
        </mxCell>
        <mxCell id="JAHpM6WGsFmIWSkiwUEK-42" value="" style="edgeStyle=orthogonalEdgeStyle;rounded=0;orthogonalLoop=1;jettySize=auto;html=1;endArrow=none;endFill=0;dashed=1;exitX=0.5;exitY=0;exitDx=0;exitDy=0;exitPerimeter=0;" parent="JAHpM6WGsFmIWSkiwUEK-40" source="JAHpM6WGsFmIWSkiwUEK-43" edge="1">
          <mxGeometry relative="1" as="geometry">
            <mxPoint x="106" y="60" as="targetPoint" />
            <Array as="points">
              <mxPoint x="172" y="58" />
              <mxPoint x="106" y="58" />
            </Array>
          </mxGeometry>
        </mxCell>
        <mxCell id="JAHpM6WGsFmIWSkiwUEK-43" value="Inspector 2" style="sketch=0;points=[[0,0,0],[0.25,0,0],[0.5,0,0],[0.75,0,0],[1,0,0],[0,1,0],[0.25,1,0],[0.5,1,0],[0.75,1,0],[1,1,0],[0,0.25,0],[0,0.5,0],[0,0.75,0],[1,0.25,0],[1,0.5,0],[1,0.75,0]];outlineConnect=0;fontColor=#232F3E;gradientColor=#F54749;gradientDirection=north;fillColor=#C7131F;strokeColor=#ffffff;dashed=0;verticalLabelPosition=bottom;verticalAlign=top;align=center;html=1;fontSize=12;fontStyle=0;aspect=fixed;shape=mxgraph.aws4.resourceIcon;resIcon=mxgraph.aws4.inspector;" parent="JAHpM6WGsFmIWSkiwUEK-40" vertex="1">
          <mxGeometry x="152" y="78" width="40" height="40" as="geometry" />
        </mxCell>
        <mxCell id="JAHpM6WGsFmIWSkiwUEK-44" value="Security Hub&lt;br&gt;" style="sketch=0;points=[[0,0,0],[0.25,0,0],[0.5,0,0],[0.75,0,0],[1,0,0],[0,1,0],[0.25,1,0],[0.5,1,0],[0.75,1,0],[1,1,0],[0,0.25,0],[0,0.5,0],[0,0.75,0],[1,0.25,0],[1,0.5,0],[1,0.75,0]];outlineConnect=0;fontColor=#232F3E;gradientColor=#F54749;gradientDirection=north;fillColor=#C7131F;strokeColor=#ffffff;dashed=0;verticalLabelPosition=bottom;verticalAlign=top;align=center;html=1;fontSize=12;fontStyle=0;aspect=fixed;shape=mxgraph.aws4.resourceIcon;resIcon=mxgraph.aws4.security_hub;" parent="JAHpM6WGsFmIWSkiwUEK-40" vertex="1">
          <mxGeometry x="20" y="40" width="38" height="38" as="geometry" />
        </mxCell>
        <mxCell id="JAHpM6WGsFmIWSkiwUEK-45" value="" style="edgeStyle=orthogonalEdgeStyle;rounded=0;orthogonalLoop=1;jettySize=auto;html=1;entryX=1;entryY=0.5;entryDx=0;entryDy=0;entryPerimeter=0;exitX=0.5;exitY=0;exitDx=0;exitDy=0;exitPerimeter=0;dashed=1;" parent="JAHpM6WGsFmIWSkiwUEK-40" source="JAHpM6WGsFmIWSkiwUEK-41" target="JAHpM6WGsFmIWSkiwUEK-44" edge="1">
          <mxGeometry relative="1" as="geometry">
            <mxPoint x="106" y="8" as="targetPoint" />
          </mxGeometry>
        </mxCell>
        <mxCell id="JAHpM6WGsFmIWSkiwUEK-46" value="Management Account" style="points=[[0,0],[0.25,0],[0.5,0],[0.75,0],[1,0],[1,0.25],[1,0.5],[1,0.75],[1,1],[0.75,1],[0.5,1],[0.25,1],[0,1],[0,0.75],[0,0.5],[0,0.25]];outlineConnect=0;gradientColor=none;html=1;whiteSpace=wrap;fontSize=12;fontStyle=0;container=1;pointerEvents=0;collapsible=0;recursiveResize=0;shape=mxgraph.aws4.group;grIcon=mxgraph.aws4.group_account;strokeColor=#000000;fillColor=none;verticalAlign=top;align=left;spacingLeft=30;fontColor=#CD2264;dashed=0;" parent="1" vertex="1">
          <mxGeometry x="10" y="-350" width="540" height="220" as="geometry" />
        </mxCell>
        <mxCell id="JAHpM6WGsFmIWSkiwUEK-47" value="SH Aggregate Region" style="text;html=1;align=center;verticalAlign=middle;resizable=0;points=[];autosize=1;strokeColor=none;fillColor=none;" parent="JAHpM6WGsFmIWSkiwUEK-46" vertex="1">
          <mxGeometry x="116" y="30" width="140" height="30" as="geometry" />
        </mxCell>
        <mxCell id="JAHpM6WGsFmIWSkiwUEK-48" value="us-east-2" style="points=[[0,0],[0.25,0],[0.5,0],[0.75,0],[1,0],[1,0.25],[1,0.5],[1,0.75],[1,1],[0.75,1],[0.5,1],[0.25,1],[0,1],[0,0.75],[0,0.5],[0,0.25]];outlineConnect=0;gradientColor=none;html=1;whiteSpace=wrap;fontSize=12;fontStyle=0;container=1;pointerEvents=0;collapsible=0;recursiveResize=0;shape=mxgraph.aws4.group;grIcon=mxgraph.aws4.group_region;strokeColor=#147EBA;fillColor=none;verticalAlign=top;align=left;spacingLeft=30;fontColor=#147EBA;dashed=1;" parent="1" vertex="1">
          <mxGeometry x="300" y="-320" width="220" height="160" as="geometry" />
        </mxCell>
        <mxCell id="JAHpM6WGsFmIWSkiwUEK-49" value="Guardduty" style="sketch=0;points=[[0,0,0],[0.25,0,0],[0.5,0,0],[0.75,0,0],[1,0,0],[0,1,0],[0.25,1,0],[0.5,1,0],[0.75,1,0],[1,1,0],[0,0.25,0],[0,0.5,0],[0,0.75,0],[1,0.25,0],[1,0.5,0],[1,0.75,0]];outlineConnect=0;fontColor=#232F3E;gradientColor=#F54749;gradientDirection=north;fillColor=#C7131F;strokeColor=#ffffff;dashed=0;verticalLabelPosition=bottom;verticalAlign=top;align=center;html=1;fontSize=12;fontStyle=0;aspect=fixed;shape=mxgraph.aws4.resourceIcon;resIcon=mxgraph.aws4.guardduty;" parent="JAHpM6WGsFmIWSkiwUEK-48" vertex="1">
          <mxGeometry x="86" y="79" width="40" height="40" as="geometry" />
        </mxCell>
        <mxCell id="JAHpM6WGsFmIWSkiwUEK-50" value="" style="edgeStyle=orthogonalEdgeStyle;rounded=0;orthogonalLoop=1;jettySize=auto;html=1;endArrow=none;endFill=0;dashed=1;exitX=0.5;exitY=0;exitDx=0;exitDy=0;exitPerimeter=0;" parent="JAHpM6WGsFmIWSkiwUEK-48" source="JAHpM6WGsFmIWSkiwUEK-51" edge="1">
          <mxGeometry relative="1" as="geometry">
            <mxPoint x="106" y="61" as="targetPoint" />
            <Array as="points">
              <mxPoint x="172" y="59" />
              <mxPoint x="106" y="59" />
            </Array>
          </mxGeometry>
        </mxCell>
        <mxCell id="JAHpM6WGsFmIWSkiwUEK-51" value="Inspector 2" style="sketch=0;points=[[0,0,0],[0.25,0,0],[0.5,0,0],[0.75,0,0],[1,0,0],[0,1,0],[0.25,1,0],[0.5,1,0],[0.75,1,0],[1,1,0],[0,0.25,0],[0,0.5,0],[0,0.75,0],[1,0.25,0],[1,0.5,0],[1,0.75,0]];outlineConnect=0;fontColor=#232F3E;gradientColor=#F54749;gradientDirection=north;fillColor=#C7131F;strokeColor=#ffffff;dashed=0;verticalLabelPosition=bottom;verticalAlign=top;align=center;html=1;fontSize=12;fontStyle=0;aspect=fixed;shape=mxgraph.aws4.resourceIcon;resIcon=mxgraph.aws4.inspector;" parent="JAHpM6WGsFmIWSkiwUEK-48" vertex="1">
          <mxGeometry x="152" y="79" width="40" height="40" as="geometry" />
        </mxCell>
        <mxCell id="JAHpM6WGsFmIWSkiwUEK-52" value="Security Hub&lt;br&gt;" style="sketch=0;points=[[0,0,0],[0.25,0,0],[0.5,0,0],[0.75,0,0],[1,0,0],[0,1,0],[0.25,1,0],[0.5,1,0],[0.75,1,0],[1,1,0],[0,0.25,0],[0,0.5,0],[0,0.75,0],[1,0.25,0],[1,0.5,0],[1,0.75,0]];outlineConnect=0;fontColor=#232F3E;gradientColor=#F54749;gradientDirection=north;fillColor=#C7131F;strokeColor=#ffffff;dashed=0;verticalLabelPosition=bottom;verticalAlign=top;align=center;html=1;fontSize=12;fontStyle=0;aspect=fixed;shape=mxgraph.aws4.resourceIcon;resIcon=mxgraph.aws4.security_hub;" parent="JAHpM6WGsFmIWSkiwUEK-48" vertex="1">
          <mxGeometry x="20" y="41" width="38" height="38" as="geometry" />
        </mxCell>
        <mxCell id="JAHpM6WGsFmIWSkiwUEK-53" value="" style="edgeStyle=orthogonalEdgeStyle;rounded=0;orthogonalLoop=1;jettySize=auto;html=1;entryX=1;entryY=0.5;entryDx=0;entryDy=0;entryPerimeter=0;exitX=0.5;exitY=0;exitDx=0;exitDy=0;exitPerimeter=0;dashed=1;" parent="JAHpM6WGsFmIWSkiwUEK-48" source="JAHpM6WGsFmIWSkiwUEK-49" target="JAHpM6WGsFmIWSkiwUEK-52" edge="1">
          <mxGeometry relative="1" as="geometry">
            <mxPoint x="106" y="9" as="targetPoint" />
          </mxGeometry>
        </mxCell>
        <mxCell id="JAHpM6WGsFmIWSkiwUEK-54" value="" style="edgeStyle=orthogonalEdgeStyle;rounded=0;orthogonalLoop=1;jettySize=auto;html=1;entryX=1;entryY=0.25;entryDx=0;entryDy=0;entryPerimeter=0;exitX=0;exitY=0.25;exitDx=0;exitDy=0;exitPerimeter=0;dashed=1;" parent="1" source="JAHpM6WGsFmIWSkiwUEK-52" target="JAHpM6WGsFmIWSkiwUEK-44" edge="1">
          <mxGeometry relative="1" as="geometry" />
        </mxCell>
        <mxCell id="JAHpM6WGsFmIWSkiwUEK-55" value="" style="edgeStyle=orthogonalEdgeStyle;rounded=0;orthogonalLoop=1;jettySize=auto;html=1;entryX=1;entryY=0.25;entryDx=0;entryDy=0;entryPerimeter=0;exitX=1;exitY=0.75;exitDx=0;exitDy=0;exitPerimeter=0;startArrow=classic;startFill=1;endArrow=none;endFill=0;" parent="1" source="JAHpM6WGsFmIWSkiwUEK-51" target="JAHpM6WGsFmIWSkiwUEK-4" edge="1">
          <mxGeometry relative="1" as="geometry" />
        </mxCell>
        <mxCell id="JAHpM6WGsFmIWSkiwUEK-57" value="" style="edgeStyle=orthogonalEdgeStyle;rounded=0;orthogonalLoop=1;jettySize=auto;html=1;entryX=1;entryY=0.75;entryDx=0;entryDy=0;entryPerimeter=0;exitX=1;exitY=0.25;exitDx=0;exitDy=0;exitPerimeter=0;startArrow=classic;startFill=1;endArrow=none;endFill=0;" parent="1" source="JAHpM6WGsFmIWSkiwUEK-36" target="JAHpM6WGsFmIWSkiwUEK-4" edge="1">
          <mxGeometry relative="1" as="geometry">
            <mxPoint x="532" y="259" as="targetPoint" />
          </mxGeometry>
        </mxCell>
        <mxCell id="JAHpM6WGsFmIWSkiwUEK-58" value="" style="edgeStyle=orthogonalEdgeStyle;rounded=0;orthogonalLoop=1;jettySize=auto;html=1;entryX=1;entryY=0.75;entryDx=0;entryDy=0;entryPerimeter=0;exitX=1;exitY=0.25;exitDx=0;exitDy=0;exitPerimeter=0;startArrow=classic;startFill=1;endArrow=none;endFill=0;" parent="1" source="JAHpM6WGsFmIWSkiwUEK-34" target="JAHpM6WGsFmIWSkiwUEK-3" edge="1">
          <mxGeometry relative="1" as="geometry" />
        </mxCell>
        <mxCell id="JAHpM6WGsFmIWSkiwUEK-59" value="" style="edgeStyle=orthogonalEdgeStyle;rounded=0;orthogonalLoop=1;jettySize=auto;html=1;entryX=1;entryY=0.25;entryDx=0;entryDy=0;entryPerimeter=0;exitX=1;exitY=0.75;exitDx=0;exitDy=0;exitPerimeter=0;startArrow=classic;startFill=1;endArrow=none;endFill=0;" parent="1" source="JAHpM6WGsFmIWSkiwUEK-49" target="JAHpM6WGsFmIWSkiwUEK-3" edge="1">
          <mxGeometry relative="1" as="geometry" />
        </mxCell>
        <mxCell id="JAHpM6WGsFmIWSkiwUEK-60" value="" style="edgeStyle=orthogonalEdgeStyle;rounded=0;orthogonalLoop=1;jettySize=auto;html=1;entryX=1;entryY=0.25;entryDx=0;entryDy=0;entryPerimeter=0;exitX=1;exitY=0.75;exitDx=0;exitDy=0;exitPerimeter=0;startArrow=classic;startFill=1;endArrow=none;endFill=0;" parent="1" source="JAHpM6WGsFmIWSkiwUEK-43" target="JAHpM6WGsFmIWSkiwUEK-21" edge="1">
          <mxGeometry relative="1" as="geometry" />
        </mxCell>
        <mxCell id="JAHpM6WGsFmIWSkiwUEK-61" value="" style="edgeStyle=orthogonalEdgeStyle;rounded=0;orthogonalLoop=1;jettySize=auto;html=1;entryX=1;entryY=0.75;entryDx=0;entryDy=0;entryPerimeter=0;exitX=1;exitY=0.25;exitDx=0;exitDy=0;exitPerimeter=0;startArrow=classic;startFill=1;endArrow=none;endFill=0;" parent="1" source="JAHpM6WGsFmIWSkiwUEK-28" target="JAHpM6WGsFmIWSkiwUEK-21" edge="1">
          <mxGeometry relative="1" as="geometry" />
        </mxCell>
        <mxCell id="JAHpM6WGsFmIWSkiwUEK-62" value="" style="edgeStyle=orthogonalEdgeStyle;rounded=0;orthogonalLoop=1;jettySize=auto;html=1;entryX=1;entryY=0.25;entryDx=0;entryDy=0;entryPerimeter=0;exitX=1;exitY=0.75;exitDx=0;exitDy=0;exitPerimeter=0;startArrow=classic;startFill=1;endArrow=none;endFill=0;" parent="1" source="JAHpM6WGsFmIWSkiwUEK-41" target="JAHpM6WGsFmIWSkiwUEK-19" edge="1">
          <mxGeometry relative="1" as="geometry" />
        </mxCell>
        <mxCell id="JAHpM6WGsFmIWSkiwUEK-63" value="" style="edgeStyle=orthogonalEdgeStyle;rounded=0;orthogonalLoop=1;jettySize=auto;html=1;entryX=1;entryY=0.75;entryDx=0;entryDy=0;entryPerimeter=0;exitX=1;exitY=0.25;exitDx=0;exitDy=0;exitPerimeter=0;startArrow=classic;startFill=1;endArrow=none;endFill=0;" parent="1" source="JAHpM6WGsFmIWSkiwUEK-26" target="JAHpM6WGsFmIWSkiwUEK-19" edge="1">
          <mxGeometry relative="1" as="geometry" />
        </mxCell>
        <mxCell id="JAHpM6WGsFmIWSkiwUEK-64" value="" style="edgeStyle=orthogonalEdgeStyle;rounded=0;orthogonalLoop=1;jettySize=auto;html=1;entryX=0;entryY=0.25;entryDx=0;entryDy=0;entryPerimeter=0;exitX=0;exitY=0.75;exitDx=0;exitDy=0;exitPerimeter=0;startArrow=classic;startFill=1;endArrow=none;endFill=0;" parent="1" source="JAHpM6WGsFmIWSkiwUEK-44" target="JAHpM6WGsFmIWSkiwUEK-22" edge="1">
          <mxGeometry relative="1" as="geometry">
            <Array as="points">
              <mxPoint x="30" y="-252" />
              <mxPoint x="30" y="-30" />
            </Array>
          </mxGeometry>
        </mxCell>
        <mxCell id="JAHpM6WGsFmIWSkiwUEK-66" value="" style="edgeStyle=orthogonalEdgeStyle;rounded=0;orthogonalLoop=1;jettySize=auto;html=1;entryX=0;entryY=0.75;entryDx=0;entryDy=0;entryPerimeter=0;exitX=0;exitY=0.25;exitDx=0;exitDy=0;exitPerimeter=0;startArrow=classic;startFill=1;endArrow=none;endFill=0;" parent="1" source="JAHpM6WGsFmIWSkiwUEK-29" target="JAHpM6WGsFmIWSkiwUEK-22" edge="1">
          <mxGeometry relative="1" as="geometry">
            <mxPoint x="21" y="219.0400000000002" as="targetPoint" />
            <Array as="points">
              <mxPoint x="30" y="210" />
              <mxPoint x="30" y="-12" />
            </Array>
          </mxGeometry>
        </mxCell>
        <mxCell id="JAHpM6WGsFmIWSkiwUEK-75" value="" style="edgeStyle=orthogonalEdgeStyle;rounded=0;orthogonalLoop=1;jettySize=auto;html=1;entryX=0;entryY=0.5;entryDx=0;entryDy=0;entryPerimeter=0;exitX=0;exitY=0.25;exitDx=0;exitDy=0;exitPerimeter=0;dashed=1;" parent="1" source="JAHpM6WGsFmIWSkiwUEK-44" target="JAHpM6WGsFmIWSkiwUEK-22" edge="1">
          <mxGeometry relative="1" as="geometry">
            <mxPoint x="21" y="-260.96000000000004" as="targetPoint" />
            <Array as="points">
              <mxPoint x="20" y="-270" />
              <mxPoint x="20" y="-21" />
            </Array>
          </mxGeometry>
        </mxCell>
        <mxCell id="JAHpM6WGsFmIWSkiwUEK-77" value="" style="edgeStyle=orthogonalEdgeStyle;rounded=0;orthogonalLoop=1;jettySize=auto;html=1;entryX=0;entryY=0.5;entryDx=0;entryDy=0;entryPerimeter=0;exitX=0;exitY=0.75;exitDx=0;exitDy=0;exitPerimeter=0;dashed=1;" parent="1" source="JAHpM6WGsFmIWSkiwUEK-29" target="JAHpM6WGsFmIWSkiwUEK-22" edge="1">
          <mxGeometry relative="1" as="geometry">
            <mxPoint x="21" y="219.0400000000002" as="targetPoint" />
            <Array as="points">
              <mxPoint x="20" y="228" />
              <mxPoint x="20" y="-21" />
            </Array>
          </mxGeometry>
        </mxCell>
        <mxCell id="JAHpM6WGsFmIWSkiwUEK-79" value="" style="group" parent="1" vertex="1" connectable="0">
          <mxGeometry x="580" y="-350" width="140" height="60" as="geometry" />
        </mxCell>
        <mxCell id="JAHpM6WGsFmIWSkiwUEK-78" value="" style="rounded=0;whiteSpace=wrap;html=1;" parent="JAHpM6WGsFmIWSkiwUEK-79" vertex="1">
          <mxGeometry width="140" height="60" as="geometry" />
        </mxCell>
        <mxCell id="JAHpM6WGsFmIWSkiwUEK-68" value="" style="endArrow=none;html=1;rounded=0;" parent="JAHpM6WGsFmIWSkiwUEK-79" edge="1">
          <mxGeometry width="50" height="50" relative="1" as="geometry">
            <mxPoint x="10" y="44.599999999999994" as="sourcePoint" />
            <mxPoint x="50" y="44.599999999999994" as="targetPoint" />
          </mxGeometry>
        </mxCell>
        <mxCell id="JAHpM6WGsFmIWSkiwUEK-69" value="" style="endArrow=none;html=1;rounded=0;dashed=1;" parent="JAHpM6WGsFmIWSkiwUEK-79" edge="1">
          <mxGeometry width="50" height="50" relative="1" as="geometry">
            <mxPoint x="10" y="14.599999999999994" as="sourcePoint" />
            <mxPoint x="50" y="14.599999999999994" as="targetPoint" />
          </mxGeometry>
        </mxCell>
        <mxCell id="JAHpM6WGsFmIWSkiwUEK-70" value="Findings" style="text;html=1;align=center;verticalAlign=middle;resizable=0;points=[];autosize=1;strokeColor=none;fillColor=none;" parent="JAHpM6WGsFmIWSkiwUEK-79" vertex="1">
          <mxGeometry x="50" width="70" height="30" as="geometry" />
        </mxCell>
        <mxCell id="JAHpM6WGsFmIWSkiwUEK-73" value="Management" style="text;html=1;align=center;verticalAlign=middle;resizable=0;points=[];autosize=1;strokeColor=none;fillColor=none;" parent="JAHpM6WGsFmIWSkiwUEK-79" vertex="1">
          <mxGeometry x="50" y="30" width="90" height="30" as="geometry" />
        </mxCell>
      </root>
    </mxGraphModel>
  </diagram>
</mxfile>
